<svg width="34" height="34" viewBox="0 0 34 34" fill="none" xmlns="http://www.w3.org/2000/svg">
<g clip-path="url(#clip0_299_86847)">
<path d="M17 0C7.60966 0 0 7.60966 0 17C0 26.3903 7.60966 34 17 34C26.3903 34 34 26.3903 34 17C34 7.60966 26.3869 0 17 0ZM17 31.6907C8.88605 31.6907 2.30933 25.114 2.30933 17C2.30933 8.88605 8.88605 2.30933 17 2.30933C25.114 2.30933 31.6907 8.88605 31.6907 17C31.6907 25.114 25.114 31.6907 17 31.6907Z" fill="#0D0D0F"/>
<path d="M17.1671 17.8625C16.6002 17.8625 16.1411 17.4034 16.1411 16.8365V7.78008C16.1411 7.31404 16.5167 6.92451 16.9758 6.91408C16.9828 6.91408 16.9897 6.91408 16.9967 6.91408C17.2262 6.91408 17.4418 7.0045 17.6018 7.16449C17.7653 7.32795 17.8522 7.5401 17.8522 7.76964V15.8836L23.0169 13.8699H23.0204C23.1108 13.8386 23.2047 13.8212 23.3021 13.8212C23.6499 13.8212 23.9664 14.0403 24.0846 14.3707C24.1159 14.4611 24.1333 14.555 24.1333 14.6524C24.1333 15.0002 23.9142 15.3132 23.5873 15.4315L17.5392 17.7895C17.421 17.8382 17.2958 17.8625 17.1671 17.8625Z" fill="#FF6E00"/>
</g>
<defs>
<clipPath id="clip0_299_86847">
<rect width="34" height="34" fill="white"/>
</clipPath>
</defs>
</svg>
