<svg width="47" height="47" viewBox="0 0 47 47" fill="none" xmlns="http://www.w3.org/2000/svg">
<path d="M18.0688 26.4433L5.33475 39.1774C4.35962 40.1526 2.75352 40.1525 1.77839 39.1774C0.803252 38.2023 0.803251 36.5962 1.77838 35.621L14.5125 22.887L18.0688 26.4433Z" fill="#FF6E00"/>
<path d="M37.3994 17.8966L21.3957 33.9002L12.4474 24.9519L37.3994 -9.89208e-06C42.3324 4.93302 42.3324 12.9635 37.3994 17.8966Z" fill="#1D1D1B"/>
<path opacity="0.2" d="M35.9654 16.4625C40.0953 12.3326 40.0953 5.56399 35.9654 1.43401L37.3994 -9.89208e-06C42.3324 4.93302 42.3324 12.9635 37.3994 17.8966L21.3957 33.9002L19.9617 32.4662L35.9654 16.4625Z" fill="white"/>
</svg>
