<svg width="17" height="44" viewBox="0 0 17 44" fill="none" xmlns="http://www.w3.org/2000/svg">
<g clip-path="url(#clip0_299_86831)">
<path d="M8.01319 32.3275V5.54279C8.01319 5.16784 7.7099 4.8744 7.35873 4.8744H7.34277C6.97563 4.8744 6.68831 5.18414 6.68831 5.54279V32.3601C4.70897 32.7188 3.2085 34.4794 3.2085 36.615C3.2085 38.9952 5.10803 40.9352 7.43854 40.9352C9.76906 40.9352 11.6686 38.9952 11.6686 36.615C11.6526 34.4305 10.0723 32.621 8.01319 32.3275Z" fill="#FF6E00"/>
<path d="M3.38398 11.3465C3.38398 17.574 3.38398 23.8015 3.38398 30.029C0.670368 31.8875 -0.590665 35.2457 0.271307 38.5062C1.13328 41.7178 4.11826 43.9023 7.32671 44.0164C10.583 44.1142 13.4563 41.8482 14.5098 38.7671C15.6112 35.5066 14.2065 31.9201 11.4769 30.0453C11.4769 22.0735 11.4769 14.0853 11.4769 6.11347C11.4769 5.03752 11.5727 3.91266 11.3812 2.85301C10.7906 -0.391159 6.08164 -0.831322 4.22999 1.35319C3.25628 2.49435 3.38398 3.94526 3.38398 5.33096C3.38398 7.33615 3.38398 9.34133 3.38398 11.3465ZM4.51732 30.3387C4.51732 29.2791 4.51732 28.2357 4.51732 27.1761C4.51732 22.2039 4.51732 17.2317 4.51732 12.2595C4.51732 10.1238 4.51732 8.00454 4.51732 5.86894C4.51732 4.66256 4.32577 3.26056 4.99619 2.21721C5.76239 1.02714 7.93328 0.913027 9.09854 1.51621C9.99243 1.98898 10.3436 2.93452 10.3436 3.89635C10.3436 5.31466 10.3436 6.71666 10.3436 8.13496C10.3436 13.2376 10.3436 18.3402 10.3436 23.4266C10.3436 25.7415 10.3436 28.0401 10.3436 30.355C10.3436 30.5507 10.4075 30.6811 10.5192 30.7789C10.5511 30.8115 10.583 30.8278 10.615 30.8604C14.1746 33.0775 14.7333 38.0824 11.7802 41.082C8.95488 43.9349 4.21403 43.1524 2.10699 39.8593C1.02154 38.1639 0.87788 36.0446 1.53234 34.1698C1.85159 33.2406 2.42624 32.4254 3.11262 31.757C3.4638 31.3495 4.51732 30.9419 4.51732 30.3387Z" fill="#272425"/>
<path d="M13.9352 8.52612C14.7971 8.52612 15.6751 8.52612 16.537 8.52612C17.1596 8.52612 17.1596 7.53168 16.537 7.53168C15.6751 7.53168 14.7971 7.53168 13.9352 7.53168C13.3126 7.53168 13.3126 8.52612 13.9352 8.52612Z" fill="#272425"/>
<path d="M13.9352 14.4276C14.7971 14.4276 15.6751 14.4276 16.537 14.4276C17.1596 14.4276 17.1596 13.4331 16.537 13.4331C15.6751 13.4331 14.7971 13.4331 13.9352 13.4331C13.3126 13.4331 13.3126 14.4276 13.9352 14.4276Z" fill="#272425"/>
<path d="M13.9352 20.8507C14.7971 20.8507 15.6751 20.8507 16.537 20.8507C17.1596 20.8507 17.1596 19.8562 16.537 19.8562C15.6751 19.8562 14.7971 19.8562 13.9352 19.8562C13.3126 19.8562 13.3126 20.8507 13.9352 20.8507Z" fill="#272425"/>
</g>
<defs>
<clipPath id="clip0_299_86831">
<rect width="17" height="44" fill="white"/>
</clipPath>
</defs>
</svg>
